<svg width="56" height="42" viewBox="0 0 56 42" fill="none" xmlns="http://www.w3.org/2000/svg">
<path fill-rule="evenodd" clip-rule="evenodd" d="M17.9325 13.6899C19.2525 13.6884 20.5181 13.1632 21.4515 12.2297C22.3849 11.2962 22.9099 10.0305 22.9114 8.71034C22.9114 8.54265 22.9032 8.37621 22.8868 8.21102C22.8542 7.8815 22.7888 7.55608 22.6914 7.2396C22.6426 7.08095 22.5858 6.92428 22.5209 6.76958C22.1704 5.94003 21.6016 5.22101 20.8749 4.68904C20.1483 4.15706 19.2911 3.83203 18.3945 3.74852C17.4979 3.66501 16.5954 3.82615 15.783 4.21479C14.9707 4.60343 14.2789 5.20504 13.7813 5.9556C13.2836 6.70617 12.9987 7.57761 12.9569 8.47721C12.9151 9.37681 13.118 10.2709 13.5438 11.0644C13.9697 11.8579 14.6027 12.5211 15.3755 12.9834C16.1483 13.4457 17.032 13.6899 17.9325 13.6899ZM17.9325 12.4651C17.7055 12.4644 17.4791 12.4434 17.256 12.4023C17.2504 12.4013 17.2447 12.4006 17.239 12.3999C17.2326 12.3991 17.2262 12.3983 17.22 12.3971C17.0093 12.356 16.8027 12.2968 16.6022 12.22C16.5935 12.2167 16.5846 12.2137 16.5757 12.2108L16.5635 12.2066C16.5567 12.2043 16.55 12.2018 16.5434 12.1992C16.3508 12.1217 16.1651 12.0281 15.9882 11.9195C15.9825 11.9161 15.9768 11.9127 15.9711 11.9094L15.9588 11.9023C15.9451 11.8944 15.9313 11.8864 15.918 11.8779C15.745 11.7666 15.5815 11.6413 15.4291 11.5032L15.4016 11.4788C15.3954 11.4732 15.3892 11.4676 15.383 11.4619C15.0805 10.6712 15.054 9.80153 15.3078 8.99389C15.5615 8.18625 16.0807 7.48805 16.7811 7.01254C17.4814 6.53703 18.3219 6.31211 19.1661 6.37427C20.0103 6.43642 20.8088 6.782 21.432 7.35494C21.4366 7.36687 21.4408 7.37885 21.4451 7.39085L21.4532 7.41341C21.5243 7.60512 21.5797 7.80232 21.6188 8.00304C21.6197 8.00801 21.6206 8.01301 21.6213 8.01803L21.6228 8.02861L21.6238 8.03629L21.6258 8.05085C21.6265 8.05552 21.6272 8.06018 21.628 8.06482C21.7247 8.60448 21.7015 9.15879 21.5602 9.68851C21.419 10.2182 21.163 10.7104 20.8104 11.1302C20.4578 11.55 20.0173 11.8872 19.5199 12.1179C19.0226 12.3486 18.4807 12.4671 17.9325 12.4651ZM17.9325 4.95083C18.3374 4.95248 18.7393 5.01982 19.1226 5.15022C19.0957 5.14901 19.0688 5.14727 19.042 5.14553C18.9934 5.14238 18.9447 5.13923 18.8956 5.13923C17.8563 5.14094 16.8434 5.46723 15.9985 6.07253C15.1536 6.67782 14.5188 7.5319 14.1828 8.51548C14.2331 7.55434 14.6499 6.64905 15.3474 5.98595C16.0449 5.32284 16.9701 4.95239 17.9325 4.95083Z" fill="#141118"/>
<path fill-rule="evenodd" clip-rule="evenodd" d="M20.682 18.0312C20.682 17.487 20.5206 16.9549 20.2182 16.5024C19.9158 16.0499 19.486 15.6972 18.9832 15.4889C18.4804 15.2807 17.9271 15.2262 17.3933 15.3324C16.8596 15.4386 16.3693 15.7007 15.9845 16.0856C15.5997 16.4705 15.3376 16.9608 15.2315 17.4947C15.1253 18.0285 15.1798 18.5818 15.3881 19.0846C15.5964 19.5875 15.9492 20.0172 16.4017 20.3196C16.8542 20.6219 17.3862 20.7833 17.9305 20.7833C18.66 20.7825 19.3594 20.4922 19.8753 19.9763C20.3911 19.4604 20.6813 18.7608 20.682 18.0312ZM17.9305 19.5584C17.6285 19.5585 17.3332 19.4689 17.0821 19.3012C16.831 19.1334 16.6353 18.8949 16.5197 18.6159C16.4041 18.3369 16.3738 18.0298 16.4327 17.7336C16.4916 17.4374 16.637 17.1653 16.8505 16.9517C17.064 16.7381 17.3361 16.5927 17.6323 16.5337C17.9285 16.4748 18.2355 16.505 18.5145 16.6205C18.7935 16.7361 19.032 16.9318 19.1998 17.1829C19.3676 17.434 19.4572 17.7292 19.4572 18.0312C19.4568 18.4361 19.2958 18.8242 19.0096 19.1105C18.7233 19.3968 18.3353 19.5579 17.9305 19.5584Z" fill="#141118"/>
<path fill-rule="evenodd" clip-rule="evenodd" d="M14.0131 14.6007C14.034 14.784 14.0448 14.9683 14.0455 15.1528C14.0439 16.3891 13.5832 17.5806 12.7527 18.4963C11.9222 19.4119 10.7811 19.9864 9.55101 20.1082C8.32088 20.2299 7.08938 19.8903 6.0955 19.1552C5.10163 18.4202 4.41625 17.342 4.17239 16.1301C3.92853 14.9182 4.14356 13.6588 4.77577 12.5965C5.40797 11.5342 6.41226 10.7446 7.59373 10.3811C8.77521 10.0175 10.0496 10.1058 11.1696 10.629C12.2896 11.1521 13.1754 12.0727 13.655 13.2121L13.6556 13.2136C13.7133 13.3509 13.7624 13.4908 13.8074 13.6316L13.8101 13.6397L13.8134 13.6486L13.8161 13.6556C13.8194 13.6641 13.8227 13.6726 13.8254 13.6812C13.9169 13.9811 13.9797 14.289 14.0131 14.6007ZM8.39011 18.8448C8.61328 18.8859 8.83968 18.9069 9.0666 18.9075C10.0619 18.9064 11.0162 18.5104 11.72 17.8065C12.4238 17.1026 12.8197 16.1483 12.8208 15.1528C12.8196 14.9369 12.8001 14.7214 12.7624 14.5087C12.7608 14.4991 12.7595 14.4894 12.7582 14.4797C12.7566 14.4678 12.755 14.4559 12.7528 14.4442C12.7138 14.244 12.6586 14.0474 12.5875 13.8563L12.5791 13.8329C12.5749 13.821 12.5706 13.8091 12.5661 13.7973C11.9429 13.2244 11.1444 12.8788 10.3002 12.8167C9.45596 12.7546 8.61551 12.9795 7.91515 13.455C7.2148 13.9305 6.69563 14.6287 6.44187 15.4364C6.1881 16.244 6.21462 17.1137 6.51713 17.9044C6.52697 17.9135 6.53699 17.9224 6.54701 17.9313L6.56325 17.9457C6.71567 18.0838 6.87917 18.2091 7.0521 18.3203C7.06551 18.3289 7.07924 18.3368 7.09298 18.3448C7.10279 18.3505 7.1126 18.3561 7.1223 18.362C7.29923 18.4706 7.48497 18.5642 7.67756 18.6417C7.68819 18.6459 7.69904 18.6496 7.70988 18.6532C7.71875 18.6562 7.72761 18.6592 7.73635 18.6625C7.93678 18.7392 8.14348 18.7985 8.35412 18.8395L8.35842 18.8403L8.36237 18.8409L8.37313 18.8424C8.37882 18.8431 8.38451 18.8438 8.39011 18.8448ZM10.2569 11.5927C9.87353 11.4623 9.47154 11.395 9.0666 11.3933C8.10422 11.3949 7.17906 11.7653 6.48153 12.4284C5.78401 13.0915 5.36722 13.9968 5.31693 14.9579C5.65295 13.9744 6.28774 13.1203 7.13264 12.515C7.97755 11.9097 8.99039 11.5834 10.0297 11.5817C10.0788 11.5817 10.1273 11.5848 10.1758 11.588C10.2027 11.5897 10.2299 11.5915 10.2569 11.5927Z" fill="#141118"/>
<path fill-rule="evenodd" clip-rule="evenodd" d="M17.0414 23.6369L17.0408 23.6354C16.561 22.4962 15.6752 21.5759 14.5553 21.053C13.4353 20.5301 12.1611 20.442 10.9798 20.8057C9.79854 21.1694 8.79451 21.959 8.16254 23.0213C7.53058 24.0836 7.31576 25.3428 7.55976 26.5546C7.80377 27.7663 8.4892 28.8442 9.48305 29.579C10.4769 30.3139 11.7083 30.6533 12.9382 30.5314C14.1682 30.4095 15.309 29.835 16.1393 28.9193C16.9696 28.0037 17.4301 26.8122 17.4316 25.5762C17.4309 25.3917 17.42 25.2074 17.3992 25.0242C17.3476 24.5469 17.2271 24.0796 17.0414 23.6369ZM12.4524 21.8166C12.8573 21.8183 13.2593 21.8856 13.6426 22.016C13.6158 22.0148 13.589 22.013 13.5623 22.0113C13.5136 22.0082 13.465 22.005 13.4158 22.005C12.3765 22.0067 11.3636 22.333 10.5187 22.9383C9.67383 23.5436 9.03905 24.3977 8.70303 25.3813C8.75329 24.4202 9.17003 23.5149 9.86749 22.8518C10.5649 22.1887 11.49 21.8182 12.4524 21.8166ZM12.4524 29.3308C12.2251 29.3302 11.9984 29.3092 11.775 29.268C11.7715 29.2674 11.768 29.2669 11.7645 29.2664L11.758 29.2656C11.752 29.2648 11.746 29.264 11.7401 29.2629C11.5291 29.2218 11.3221 29.1625 11.1215 29.0857C11.1127 29.0823 11.1037 29.0793 11.0948 29.0763C11.0885 29.0742 11.0821 29.0721 11.0759 29.0698C11.0717 29.0683 11.0675 29.0668 11.0633 29.0651C10.8701 28.9874 10.6838 28.8936 10.5064 28.7846C10.4971 28.7789 10.4877 28.7735 10.4783 28.7681C10.465 28.7604 10.4516 28.7527 10.4386 28.7443C10.2645 28.6324 10.1 28.5063 9.94667 28.3672L9.93062 28.3529C9.92137 28.3447 9.91213 28.3365 9.90301 28.3281C9.6004 27.5374 9.57379 26.6677 9.82751 25.86C10.0812 25.0523 10.6004 24.354 11.3007 23.8784C12.0011 23.4028 12.8416 23.1779 13.6859 23.24C14.5301 23.3021 15.3286 23.6477 15.9519 24.2207C15.9543 24.2271 15.9567 24.2336 15.9591 24.2401L15.9732 24.2792C16.0444 24.4709 16.0998 24.668 16.139 24.8687C16.14 24.8743 16.141 24.88 16.1418 24.8857L16.1441 24.9022L16.145 24.9094L16.1462 24.9175C16.1468 24.9218 16.1475 24.9261 16.1482 24.9304C16.2449 25.4701 16.2218 26.0244 16.0805 26.5542C15.9392 27.084 15.6832 27.5762 15.3305 27.996C14.9779 28.4159 14.5373 28.7531 14.04 28.9837C13.5426 29.2144 13.0006 29.3329 12.4524 29.3308Z" fill="#141118"/>
<path fill-rule="evenodd" clip-rule="evenodd" d="M28.3586 25.0254C28.3795 25.2088 28.3903 25.3931 28.391 25.5776C28.3895 26.8136 27.9289 28.0051 27.0986 28.9207C26.2683 29.8363 25.1275 30.4107 23.8975 30.5326C22.6676 30.6544 21.4362 30.315 20.4424 29.5801C19.4486 28.8453 18.7632 27.7674 18.5192 26.5556C18.2753 25.3439 18.4901 24.0847 19.1221 23.0224C19.7541 21.9602 20.7581 21.1706 21.9393 20.8069C23.1206 20.4432 24.3948 20.5313 25.5148 21.0542C26.6347 21.5771 27.5205 22.4974 28.0002 23.6365L28.0008 23.638C28.1866 24.0808 28.3071 24.5481 28.3586 25.0254ZM24.603 22.0175C24.2194 21.8869 23.8171 21.8194 23.4118 21.8178C22.4495 21.8194 21.5243 22.1899 20.8269 22.8531C20.1294 23.5162 19.7127 24.4216 19.6625 25.3827C19.9985 24.3991 20.6333 23.5451 21.4782 22.9398C22.3231 22.3345 23.3359 22.0082 24.3753 22.0065C24.4248 22.0065 24.4737 22.0096 24.5227 22.0128C24.5494 22.0146 24.5762 22.0163 24.603 22.0175ZM22.7351 29.2693C22.9583 29.3104 23.1848 29.3314 23.4118 29.332C23.9601 29.3341 24.502 29.2157 24.9994 28.985C25.4968 28.7544 25.9374 28.4172 26.29 27.9974C26.6426 27.5776 26.8986 27.0854 27.0399 26.5557C27.1812 26.0259 27.2043 25.4716 27.1076 24.9319C27.106 24.9226 27.1048 24.9132 27.1036 24.9038C27.102 24.8924 27.1005 24.881 27.0984 24.8698C27.0593 24.6691 27.0039 24.4721 26.9326 24.2805L26.9283 24.2683L26.9251 24.2594C26.9206 24.2468 26.9161 24.2343 26.9113 24.2218C26.288 23.649 25.4895 23.3035 24.6453 23.2414C23.801 23.1794 22.9606 23.4044 22.2602 23.88C21.5599 24.3556 21.0408 25.0538 20.7871 25.8615C20.5333 26.6691 20.5599 27.5388 20.8625 28.3295C20.8684 28.3351 20.8745 28.3405 20.8805 28.3459L20.8982 28.3615L20.9064 28.369C21.0596 28.5077 21.2239 28.6336 21.3977 28.7454C21.4109 28.7538 21.4243 28.7615 21.4378 28.7693C21.4473 28.7748 21.4569 28.7804 21.4663 28.7861C21.6436 28.8949 21.8297 28.9887 22.0227 29.0663C22.0332 29.0704 22.0439 29.074 22.0545 29.0776C22.0633 29.0806 22.0723 29.0836 22.0809 29.0869C22.2815 29.1637 22.4884 29.223 22.6992 29.264L22.704 29.2649L22.7089 29.2656L22.7179 29.2668L22.7223 29.2674L22.7277 29.2681L22.7351 29.2693Z" fill="#141118"/>
<path fill-rule="evenodd" clip-rule="evenodd" d="M23.302 18.6988C24.0012 19.388 24.8885 19.8552 25.8524 20.0415C26.8164 20.2279 27.8139 20.1252 28.7196 19.7463C29.6253 19.3673 30.3988 18.7291 30.9429 17.9118C31.487 17.0946 31.7773 16.1347 31.7775 15.1528C31.7768 14.9683 31.766 14.784 31.7451 14.6007C31.6936 14.1233 31.5731 13.656 31.3873 13.2133L31.3867 13.2118C31.1004 12.5326 30.6669 11.9255 30.1176 11.4341C29.5683 10.9427 28.9168 10.5794 28.2101 10.3702C27.5034 10.161 26.7591 10.1113 26.0309 10.2245C25.3026 10.3377 24.6086 10.6111 23.9987 11.025C23.3889 11.4389 22.8785 11.983 22.5043 12.6179C22.1301 13.2529 21.9014 13.963 21.8348 14.697C21.7681 15.4311 21.8652 16.1708 22.1189 16.8628C22.3726 17.5548 22.7767 18.1818 23.302 18.6988ZM26.7983 18.9072C26.5713 18.9066 26.3449 18.8856 26.1216 18.8445C26.1097 18.8424 26.0976 18.8415 26.0857 18.8393C25.8749 18.7982 25.668 18.7389 25.4674 18.6621C25.4587 18.6588 25.4499 18.6558 25.4411 18.6529C25.4304 18.6493 25.4197 18.6457 25.4093 18.6415C25.2162 18.5639 25.0301 18.4702 24.8528 18.3613C24.8434 18.3556 24.8338 18.3501 24.8243 18.3446C24.8108 18.3368 24.7974 18.329 24.7842 18.3206C24.6104 18.2089 24.4461 18.083 24.2929 17.9442L24.2757 17.9288C24.2667 17.9208 24.2577 17.9129 24.249 17.9047C23.9464 17.1141 23.9199 16.2444 24.1736 15.4367C24.4273 14.629 24.9464 13.9308 25.6468 13.4552C26.3471 12.9796 27.1875 12.7546 28.0318 12.8167C28.876 12.8787 29.6745 13.2242 30.2978 13.797C30.3026 13.8094 30.307 13.8219 30.3115 13.8344L30.3192 13.8557C30.3904 14.0473 30.4458 14.2444 30.4849 14.445L30.4862 14.4526L30.4874 14.46C30.4886 14.4681 30.4897 14.4762 30.4908 14.4844C30.4918 14.492 30.4929 14.4996 30.4942 14.5071C30.5908 15.0468 30.5677 15.6012 30.4264 16.1309C30.2851 16.6606 30.0291 17.1529 29.6765 17.5727C29.3239 17.9925 28.8833 18.3296 28.3859 18.5603C27.8885 18.7909 27.3466 18.9093 26.7983 18.9072ZM26.7983 11.393C27.2036 11.3947 27.6059 11.4621 27.9895 11.5927C27.9628 11.5915 27.9361 11.5898 27.9094 11.5881C27.8606 11.5849 27.8111 11.5817 27.7618 11.5817C26.7224 11.5834 25.7096 11.9097 24.8647 12.515C24.0198 13.1203 23.385 13.9744 23.049 14.958C23.0992 13.9968 23.5159 13.0915 24.2134 12.4283C24.9108 11.7651 25.836 11.3946 26.7983 11.393Z" fill="#141118"/>
<path d="M47.9133 29.0891C48.5306 29.0884 49.1435 29.1929 49.7256 29.3983C49.8018 29.4247 49.8719 29.466 49.9321 29.5197C49.9923 29.5734 50.0413 29.6384 50.0762 29.7111C50.1112 29.7837 50.1315 29.8626 50.1359 29.9431C50.1403 30.0236 50.1288 30.1042 50.102 30.1803C50.0751 30.2563 50.0336 30.3263 49.9796 30.3862C49.9257 30.4462 49.8604 30.4949 49.7876 30.5295C49.7148 30.5642 49.6359 30.5841 49.5554 30.5881C49.4748 30.5922 49.3943 30.5803 49.3184 30.5531C48.867 30.3942 48.3918 30.3133 47.9133 30.3139H45.1005C44.9381 30.3139 44.7823 30.2494 44.6674 30.1345C44.5526 30.0197 44.4881 29.8639 44.4881 29.7015C44.4881 29.5391 44.5526 29.3833 44.6674 29.2684C44.7823 29.1536 44.9381 29.0891 45.1005 29.0891H47.9133Z" fill="#141118"/>
<path d="M8.03934 39.9836H12.4917C12.6541 39.9836 12.8098 39.9191 12.9247 39.8042C13.0395 39.6894 13.1041 39.5336 13.1041 39.3712C13.1041 39.2087 13.0395 39.053 12.9247 38.9381C12.8098 38.8233 12.6541 38.7587 12.4917 38.7587H8.03934C7.87692 38.7587 7.72116 38.8233 7.60632 38.9381C7.49147 39.053 7.42696 39.2087 7.42696 39.3712C7.42696 39.5336 7.49147 39.6894 7.60632 39.8042C7.72116 39.9191 7.87692 39.9836 8.03934 39.9836Z" fill="#141118"/>
<path d="M36.1958 29.0891H40.6481C40.8105 29.0891 40.9663 29.1536 41.0812 29.2684C41.196 29.3833 41.2605 29.5391 41.2605 29.7015C41.2605 29.8639 41.196 30.0197 41.0812 30.1345C40.9663 30.2494 40.8105 30.3139 40.6481 30.3139H36.1958C36.0334 30.3139 35.8776 30.2494 35.7628 30.1345C35.6479 30.0197 35.5834 29.8639 35.5834 29.7015C35.5834 29.5391 35.6479 29.3833 35.7628 29.2684C35.8776 29.1536 36.0334 29.0891 36.1958 29.0891Z" fill="#141118"/>
<path d="M51.8767 37.9167C51.9753 37.9168 52.0725 37.8931 52.1599 37.8476C52.2474 37.8021 52.3226 37.7361 52.3791 37.6553C52.8591 36.9666 53.1739 36.1765 53.2989 35.3464C53.424 34.5162 53.3559 33.6684 53.1 32.8689C53.0503 32.7142 52.9413 32.5856 52.7968 32.5114C52.6524 32.4371 52.4844 32.4233 52.3297 32.473C52.1751 32.5226 52.0465 32.6317 51.9722 32.7761C51.898 32.9206 51.8842 33.0886 51.9338 33.2433C52.132 33.863 52.1847 34.5201 52.0879 35.1634C51.9911 35.8068 51.7473 36.4192 51.3756 36.9532C51.3114 37.0449 51.2736 37.1525 51.2663 37.2642C51.2589 37.3759 51.2824 37.4875 51.3341 37.5869C51.3857 37.6862 51.4636 37.7694 51.5593 37.8276C51.655 37.8857 51.7648 37.9165 51.8767 37.9167Z" fill="#141118"/>
<path d="M21.3963 39.9836H16.944C16.7816 39.9836 16.6258 39.9191 16.511 39.8042C16.3961 39.6894 16.3316 39.5336 16.3316 39.3712C16.3316 39.2087 16.3961 39.053 16.511 38.9381C16.6258 38.8233 16.7816 38.7587 16.944 38.7587H21.3963C21.5588 38.7587 21.7145 38.8233 21.8294 38.9381C21.9442 39.053 22.0087 39.2087 22.0087 39.3712C22.0087 39.5336 21.9442 39.6894 21.8294 39.8042C21.7145 39.9191 21.5588 39.9836 21.3963 39.9836Z" fill="#141118"/>
<path d="M25.8487 39.9836H30.3007C30.4631 39.9836 30.6189 39.9191 30.7337 39.8042C30.8486 39.6894 30.9131 39.5336 30.9131 39.3712C30.9131 39.2087 30.8486 39.053 30.7337 38.9381C30.6189 38.8233 30.4631 38.7587 30.3007 38.7587H25.8487C25.6863 38.7587 25.5305 38.8233 25.4157 38.9381C25.3008 39.053 25.2363 39.2087 25.2363 39.3712C25.2363 39.5336 25.3008 39.6894 25.4157 39.8042C25.5305 39.9191 25.6863 39.9836 25.8487 39.9836Z" fill="#141118"/>
<path d="M39.2054 39.9836H34.7533C34.5909 39.9836 34.4352 39.9191 34.3203 39.8042C34.2055 39.6894 34.141 39.5336 34.141 39.3712C34.141 39.2087 34.2055 39.053 34.3203 38.9381C34.4352 38.8233 34.5909 38.7587 34.7533 38.7587H39.2054C39.3678 38.7587 39.5235 38.8233 39.6384 38.9381C39.7532 39.053 39.8178 39.2087 39.8178 39.3712C39.8178 39.5336 39.7532 39.6894 39.6384 39.8042C39.5235 39.9191 39.3678 39.9836 39.2054 39.9836Z" fill="#141118"/>
<path d="M43.6568 39.9832H47.9127C47.9866 39.9832 48.0603 39.9817 48.134 39.9787C48.2959 39.9716 48.4484 39.9005 48.5581 39.7812C48.6677 39.6618 48.7256 39.5038 48.7189 39.3418C48.7123 39.1798 48.6417 39.0271 48.5226 38.9171C48.4036 38.8071 48.2457 38.7488 48.0838 38.755C48.0269 38.7574 47.9699 38.7583 47.9127 38.7583H43.6568C43.4944 38.7583 43.3386 38.8228 43.2238 38.9377C43.109 39.0525 43.0444 39.2083 43.0444 39.3707C43.0444 39.5331 43.109 39.6889 43.2238 39.8038C43.3386 39.9186 43.4944 39.9832 43.6568 39.9832Z" fill="#141118"/>
<path fill-rule="evenodd" clip-rule="evenodd" d="M0.81459 41.329V39.3753L0.813696 39.3709L0.81459 39.3664V37.4166C0.8146 37.2542 0.879122 37.0984 0.993963 36.9836C1.10881 36.8688 1.26456 36.8042 1.42697 36.8042H47.9113C48.2094 36.8047 48.5047 36.7464 48.7802 36.6326C49.0558 36.5189 49.3062 36.3519 49.5172 36.1413C49.7282 35.9306 49.8955 35.6805 50.0097 35.4051C50.1239 35.1297 50.1827 34.8344 50.1827 34.5363C50.1827 34.2382 50.1239 33.943 50.0097 33.6676C49.8955 33.3922 49.7282 33.142 49.5172 32.9313C49.3062 32.7207 49.0558 32.5537 48.7802 32.44C48.5047 32.3262 48.2094 32.2679 47.9113 32.2684H27.4269C23.9092 34.6161 19.6471 35.5788 15.4619 34.971C11.2767 34.3631 7.46454 32.2278 4.75991 28.9763C2.05528 25.7248 0.649586 21.5874 0.813686 17.3611C0.977786 13.1349 2.70006 9.1189 5.64867 6.08698C8.59728 3.05507 12.5636 1.22177 16.7833 0.940322C21.003 0.658876 25.1776 1.9492 28.5027 4.56267C31.8278 7.17615 34.0681 10.9278 34.7919 15.0949C35.5157 19.2619 34.6719 23.5494 32.423 27.1312H47.9113C49.8751 27.1312 51.7584 27.9114 53.147 29.3001C54.5357 30.6889 55.3158 32.5724 55.3158 34.5363C55.3158 36.5003 54.5357 38.3838 53.147 39.7725C51.7584 41.1612 49.8751 41.9414 47.9113 41.9414H1.42697C1.26456 41.9414 1.10881 41.8769 0.993963 41.762C0.879122 41.6472 0.8146 41.4914 0.81459 41.329ZM3.77265 10.8151C2.63354 13.05 2.03958 15.5228 2.03936 18.0312C2.03979 21.155 2.96061 24.2094 4.68677 26.8129C6.41293 29.4164 8.8679 31.4535 11.745 32.6697C14.6221 33.8859 17.7938 34.2273 20.8638 33.6513C23.9338 33.0753 26.766 31.6074 29.0066 29.431C29.3305 29.1161 29.6403 28.788 29.9361 28.4466C30.232 28.105 30.5134 27.7507 30.7801 27.3836C32.2559 25.3554 33.2307 23.0065 33.6247 20.5292C34.0187 18.0519 33.8208 15.5165 33.0471 13.1304C32.2734 10.7442 30.9459 8.57516 29.1732 6.80053C27.4005 5.02591 25.2329 3.69614 22.8477 2.91999C20.4625 2.14384 17.9275 1.94335 15.45 2.33493C12.9725 2.72651 10.6229 3.69902 8.59326 5.17294C6.56366 6.64685 4.91176 8.5803 3.77265 10.8151ZM49.2492 37.7645C48.8249 37.9398 48.3703 38.0297 47.9113 38.0291H2.03936V38.7584H3.56942C3.73183 38.7584 3.88759 38.823 4.00244 38.9378C4.11728 39.0527 4.1818 39.2084 4.1818 39.3709C4.1818 39.5333 4.11728 39.6891 4.00244 39.8039C3.88759 39.9188 3.73183 39.9833 3.56942 39.9833H2.03936V40.7165H47.9113C49.5502 40.7165 51.1221 40.0654 52.281 38.9064C53.4399 37.7474 54.091 36.1754 54.091 34.5363C54.091 32.8972 53.4399 31.3253 52.281 30.1662C51.1221 29.0072 49.5502 28.3561 47.9113 28.3561H31.5838C31.3948 28.6061 31.1995 28.8504 30.9978 29.089H31.7438C31.9062 29.089 32.062 29.1536 32.1768 29.2684C32.2917 29.3833 32.3562 29.539 32.3562 29.7015C32.3562 29.8639 32.2917 30.0197 32.1768 30.1345C32.062 30.2494 31.9062 30.3139 31.7438 30.3139H29.8552C29.8486 30.3203 29.8416 30.3263 29.8346 30.3323C29.8278 30.3381 29.821 30.3439 29.8146 30.3501C29.5681 30.5881 29.316 30.8205 29.0551 31.0436H47.9113C48.3703 31.0429 48.8249 31.1328 49.2492 31.3081C49.6735 31.4833 50.059 31.7405 50.3838 32.0649C50.7086 32.3893 50.9663 32.7746 51.1421 33.1986C51.3179 33.6227 51.4084 34.0773 51.4084 34.5363C51.4084 34.9954 51.3179 35.4499 51.1421 35.874C50.9663 36.2981 50.7086 36.6833 50.3838 37.0077C50.059 37.3321 49.6735 37.5893 49.2492 37.7645Z" fill="#141118"/>
</svg>
