<svg width="55" height="49" viewBox="0 0 55 49" fill="none" xmlns="http://www.w3.org/2000/svg">
<path fill-rule="evenodd" clip-rule="evenodd" d="M35.3093 34.8119H52.6148C53.1436 34.8124 53.6506 35.0227 54.0245 35.3966C54.3984 35.7706 54.6087 36.2776 54.6092 36.8064V46.7729C54.6086 47.3017 54.3982 47.8086 54.0244 48.1825C53.6505 48.5564 53.1436 48.7667 52.6148 48.7674H35.3093C34.7805 48.7669 34.2734 48.5566 33.8994 48.1827C33.5254 47.8088 33.315 47.3018 33.3144 46.7729V42.4041H22.5377C21.8857 42.4026 21.2609 42.1425 20.8004 41.6808C20.3399 41.2191 20.0814 40.5936 20.0815 39.9415V3.26108C20.0823 2.60985 20.3414 1.98553 20.8018 1.52504C21.2623 1.06456 21.8865 0.805498 22.5377 0.804688H48.2023C48.8543 0.804524 49.4798 1.06307 49.9414 1.5236C50.403 1.98412 50.6631 2.60899 50.6646 3.26108V32.9767C50.6646 33.1391 50.6 33.2949 50.4852 33.4098C50.3703 33.5247 50.2145 33.5892 50.0521 33.5892C49.8896 33.5892 49.7338 33.5247 49.6189 33.4098C49.5041 33.2949 49.4395 33.1391 49.4395 32.9767V3.26108C49.4384 2.93382 49.3075 2.62037 49.0755 2.38954C48.8436 2.1587 48.5295 2.02933 48.2023 2.02982H22.5377C22.2113 2.03014 21.8983 2.15997 21.6675 2.39081C21.4367 2.62164 21.3069 2.93463 21.3066 3.26108V39.9415C21.3062 40.2688 21.4356 40.5827 21.6664 40.8147C21.8972 41.0467 22.2105 41.1776 22.5377 41.1789H33.3144V36.8064C33.315 36.2775 33.5254 35.7705 33.8994 35.3966C34.2734 35.0227 34.7805 34.8124 35.3093 34.8119ZM43.7002 41.1299H40.8545L40.8569 42.45H53.3842V41.1299H46.1503C45.9879 41.1299 45.8321 41.0654 45.7172 40.9505C45.6023 40.8356 45.5378 40.6798 45.5378 40.5174C45.5378 40.3549 45.6023 40.1991 45.7172 40.0842C45.8321 39.9693 45.9879 39.9048 46.1503 39.9048H53.3842V38.5829H40.8569V39.9048H43.7002C43.8627 39.9048 44.0185 39.9693 44.1334 40.0842C44.2482 40.1991 44.3128 40.3549 44.3128 40.5174C44.3128 40.6798 44.2482 40.8356 44.1334 40.9505C44.0185 41.0654 43.8627 41.1299 43.7002 41.1299ZM53.3842 37.3577V36.8064C53.384 36.6029 53.3032 36.4076 53.1595 36.2634C53.0158 36.1193 52.8209 36.0378 52.6173 36.037H40.8569V37.3577H53.3842ZM34.5394 36.8064V46.7729C34.5397 46.9769 34.621 47.1725 34.7653 47.3168C34.9097 47.461 35.1053 47.5421 35.3093 47.5423H39.6319V36.037H35.3093C35.1053 36.0372 34.9097 36.1183 34.7653 36.2625C34.621 36.4068 34.5397 36.6024 34.5394 36.8064ZM40.8545 47.5423H52.6148C52.819 47.5419 53.0147 47.4606 53.1589 47.3161C53.3032 47.1716 53.3842 46.9758 53.3842 46.7717V46.2203H50.8361C50.6736 46.2203 50.5178 46.1558 50.403 46.0409C50.2881 45.926 50.2236 45.7702 50.2236 45.6078C50.2236 45.4453 50.2881 45.2895 50.403 45.1746C50.5178 45.0597 50.6736 44.9952 50.8361 44.9952H53.3842V43.6751H40.8569V44.9952H48.386C48.5485 44.9952 48.7043 45.0597 48.8191 45.1746C48.934 45.2895 48.9985 45.4453 48.9985 45.6078C48.9985 45.7702 48.934 45.926 48.8191 46.0409C48.7043 46.1558 48.5485 46.2203 48.386 46.2203H40.8545V47.5423Z" fill="#141118"/>
<path d="M45.6336 5.16384H39.4405C39.278 5.16384 39.1222 5.22838 39.0073 5.34325C38.8925 5.45813 38.8279 5.61394 38.8279 5.7764C38.8279 5.93887 38.8925 6.09468 39.0073 6.20955C39.1222 6.32443 39.278 6.38897 39.4405 6.38897H45.6336C45.7961 6.38897 45.9519 6.32443 46.0668 6.20955C46.1816 6.09468 46.2462 5.93887 46.2462 5.7764C46.2462 5.61394 46.1816 5.45813 46.0668 5.34325C45.9519 5.22838 45.7961 5.16384 45.6336 5.16384Z" fill="#141118"/>
<path d="M29.0807 12.1084C29.1956 11.9935 29.3514 11.929 29.5138 11.929H34.7019V6.39136H25.7162V11.929H27.0638C27.2262 11.929 27.382 11.9935 27.4969 12.1084C27.6117 12.2233 27.6763 12.3791 27.6763 12.5415C27.6763 12.704 27.6117 12.8598 27.4969 12.9747C27.382 13.0896 27.2262 13.1541 27.0638 13.1541H25.1037C24.9412 13.1541 24.7854 13.0896 24.6706 12.9747C24.5557 12.8598 24.4912 12.704 24.4912 12.5415V5.7788C24.4912 5.61633 24.5557 5.46053 24.6706 5.34565C24.7854 5.23077 24.9412 5.16623 25.1037 5.16623H35.3144C35.4768 5.16623 35.6326 5.23077 35.7475 5.34565C35.8624 5.46053 35.9269 5.61633 35.9269 5.7788V12.5415C35.9269 12.704 35.8624 12.8598 35.7475 12.9747C35.6326 13.0896 35.4768 13.1541 35.3144 13.1541H29.5138C29.3514 13.1541 29.1956 13.0896 29.0807 12.9747C28.9658 12.8598 28.9013 12.704 28.9013 12.5415C28.9013 12.3791 28.9658 12.2233 29.0807 12.1084Z" fill="#141118"/>
<path fill-rule="evenodd" clip-rule="evenodd" d="M0.707609 19.3501C0.870059 19.3501 1.02586 19.2855 1.14073 19.1707C1.25559 19.0558 1.32013 18.9 1.32013 18.7375V13.2893C1.32045 12.9044 1.4735 12.5353 1.74567 12.2631C2.01784 11.9909 2.38689 11.8379 2.7718 11.8376H3.24344V33.0446C3.24345 33.1985 3.3014 33.3468 3.40575 33.4599L6.10084 36.3849C6.10229 36.3865 6.10397 36.3879 6.10574 36.389L6.10889 36.391L6.11064 36.392C6.11416 36.394 6.11768 36.3959 6.12044 36.399C6.12297 36.4018 6.12511 36.4051 6.12728 36.4085C6.12984 36.4125 6.13244 36.4165 6.13575 36.4198C6.17199 36.4491 6.21169 36.4738 6.25397 36.4933C6.27543 36.5085 6.29772 36.5224 6.32073 36.535C6.39374 36.5654 6.47195 36.5815 6.55104 36.5822C6.62993 36.5814 6.70792 36.5654 6.78073 36.535C6.80391 36.5226 6.82621 36.5087 6.8475 36.4933C6.88977 36.4738 6.92948 36.4491 6.96571 36.4198C6.97029 36.4157 6.97289 36.4104 6.97601 36.4055C6.97748 36.4032 6.97906 36.401 6.98103 36.399C6.98208 36.398 6.98318 36.397 6.98432 36.3962C6.98549 36.3953 6.98668 36.3946 6.98789 36.3938L6.99066 36.3922C6.99422 36.3901 6.99778 36.3881 7.00063 36.3849L9.69571 33.4599C9.80007 33.3468 9.85802 33.1985 9.85803 33.0446V20.5972C9.85803 20.4348 9.7935 20.279 9.67863 20.1641C9.56376 20.0492 9.40796 19.9847 9.24551 19.9847C9.08306 19.9847 8.92726 20.0492 8.81239 20.1641C8.69752 20.279 8.63299 20.4348 8.63299 20.5972V30.5086H4.46786V15.2208H8.63299V18.147C8.63299 18.3094 8.69752 18.4653 8.81239 18.5801C8.92726 18.695 9.08306 18.7596 9.24551 18.7596C9.40796 18.7596 9.56376 18.695 9.67863 18.5801C9.7935 18.4653 9.85803 18.3094 9.85803 18.147V11.568C9.85803 10.6907 9.50955 9.84936 8.88925 9.22902C8.26896 8.60867 7.42766 8.26017 6.55043 8.26017C5.84038 8.26118 5.14945 8.49034 4.57951 8.91385C4.00958 9.33737 3.5908 9.93282 3.38493 10.6124H2.77241C2.0627 10.6131 1.38225 10.8953 0.880409 11.3972C0.37857 11.8991 0.0963518 12.5796 0.0957031 13.2893V18.7375C0.0957031 18.8999 0.160152 19.0556 0.274889 19.1704C0.389626 19.2853 0.545265 19.3499 0.707609 19.3501ZM8.63177 31.7337V32.8057L6.5492 35.0655L4.46664 32.8057V31.7337H8.63177ZM6.5492 9.4853C7.10153 9.4853 7.63124 9.70473 8.0218 10.0953C8.41235 10.4859 8.63177 11.0157 8.63177 11.568V13.9956H4.46664V11.568C4.46664 11.2944 4.52057 11.0234 4.62534 10.7706C4.73011 10.5178 4.88368 10.2881 5.07726 10.0947C5.27083 9.90124 5.50063 9.74787 5.75351 9.64331C6.00583 9.53899 6.27619 9.4853 6.5492 9.4853Z" fill="#141118"/>
<path fill-rule="evenodd" clip-rule="evenodd" d="M14.641 36.5821C14.7199 36.5815 14.7979 36.5654 14.8707 36.535C14.894 36.5225 14.9165 36.5086 14.9381 36.4933C14.9801 36.4736 15.0196 36.4489 15.0557 36.4198C15.0592 36.4166 15.0616 36.4127 15.0639 36.4088L15.0659 36.4057C15.0674 36.4033 15.069 36.401 15.071 36.399C15.0741 36.3959 15.0776 36.3939 15.0811 36.3919C15.0846 36.39 15.0881 36.388 15.0912 36.3849L17.7863 33.4599C17.8904 33.3467 17.9482 33.1984 17.948 33.0446V11.5686C17.948 10.6913 17.5995 9.84996 16.9792 9.22962C16.3589 8.60927 15.5176 8.26077 14.6404 8.26077C13.7632 8.26077 12.9219 8.60927 12.3016 9.22962C11.6813 9.84996 11.3328 10.6913 11.3328 11.5686V33.0446C11.3326 33.1984 11.3904 33.3467 11.4945 33.4599L14.1896 36.3849C14.1926 36.388 14.1962 36.39 14.1997 36.3919C14.2032 36.3939 14.2067 36.3959 14.2098 36.399C14.2127 36.4019 14.2148 36.4053 14.2168 36.4088C14.2192 36.4127 14.2215 36.4166 14.2251 36.4198C14.2613 36.4491 14.301 36.4738 14.3433 36.4933C14.3646 36.5087 14.3869 36.5226 14.4101 36.535C14.4829 36.5654 14.5609 36.5815 14.6398 36.5821H14.641ZM12.5584 11.5686C12.5584 11.0163 12.7779 10.4865 13.1684 10.0959C13.559 9.70533 14.0887 9.4859 14.641 9.4859C15.1933 9.4859 15.723 9.70533 16.1136 10.0959C16.5042 10.4865 16.7236 11.0163 16.7236 11.5686V30.511H12.5584V11.5686ZM12.5584 31.7361H16.7236V32.8057L14.641 35.0654L12.5584 32.8057V31.7361Z" fill="#141118"/>
<path d="M39.4405 8.54791H45.6336C45.7961 8.54791 45.9519 8.61245 46.0668 8.72732C46.1816 8.8422 46.2462 8.99801 46.2462 9.16047C46.2462 9.32294 46.1816 9.47874 46.0668 9.59362C45.9519 9.7085 45.7961 9.77304 45.6336 9.77304H39.4405C39.278 9.77304 39.1222 9.7085 39.0073 9.59362C38.8925 9.47874 38.8279 9.32294 38.8279 9.16047C38.8279 8.99801 38.8925 8.8422 39.0073 8.72732C39.1222 8.61245 39.278 8.54791 39.4405 8.54791Z" fill="#141118"/>
<path d="M45.6336 11.9308H39.4405C39.278 11.9308 39.1222 11.9953 39.0073 12.1102C38.8925 12.2251 38.8279 12.3809 38.8279 12.5433C38.8279 12.7058 38.8925 12.8616 39.0073 12.9765C39.1222 13.0914 39.278 13.1559 39.4405 13.1559H45.6336C45.7961 13.1559 45.9519 13.0914 46.0668 12.9765C46.1816 12.8616 46.2462 12.7058 46.2462 12.5433C46.2462 12.3809 46.1816 12.2251 46.0668 12.1102C45.9519 11.9953 45.7961 11.9308 45.6336 11.9308Z" fill="#141118"/>
<path d="M31.126 17.0347H45.6335C45.796 17.0347 45.9518 17.0992 46.0666 17.2141C46.1815 17.329 46.246 17.4848 46.246 17.6473C46.246 17.8097 46.1815 17.9655 46.0666 18.0804C45.9518 18.1953 45.796 18.2598 45.6335 18.2598H31.126C30.9636 18.2598 30.8078 18.1953 30.6929 18.0804C30.578 17.9655 30.5135 17.8097 30.5135 17.6473C30.5135 17.4848 30.578 17.329 30.6929 17.2141C30.8078 17.0992 30.9636 17.0347 31.126 17.0347Z" fill="#141118"/>
<path d="M45.6335 20.9913H31.126C30.9636 20.9913 30.8078 21.0558 30.6929 21.1707C30.578 21.2856 30.5135 21.4414 30.5135 21.6038C30.5135 21.7663 30.578 21.9221 30.6929 22.037C30.8078 22.1519 30.9636 22.2164 31.126 22.2164H45.6335C45.796 22.2164 45.9518 22.1519 46.0666 22.037C46.1815 21.9221 46.246 21.7663 46.246 21.6038C46.246 21.4414 46.1815 21.2856 46.0666 21.1707C45.9518 21.0558 45.796 20.9913 45.6335 20.9913Z" fill="#141118"/>
<path d="M25.1049 24.9484H45.6335C45.7959 24.9484 45.9517 25.0129 46.0666 25.1278C46.1814 25.2427 46.246 25.3985 46.246 25.561C46.246 25.7234 46.1814 25.8792 46.0666 25.9941C45.9517 26.109 45.7959 26.1735 45.6335 26.1735H25.1049C24.9424 26.1735 24.7866 26.109 24.6718 25.9941C24.5569 25.8792 24.4924 25.7234 24.4924 25.561C24.4924 25.3985 24.5569 25.2427 24.6718 25.1278C24.7866 25.0129 24.9424 24.9484 25.1049 24.9484Z" fill="#141118"/>
<path d="M46.246 29.5175C46.246 29.3551 46.1814 29.1993 46.0666 29.0844C45.9517 28.9695 45.7959 28.905 45.6335 28.905H25.1049C24.9424 28.905 24.7866 28.9695 24.6718 29.0844C24.5569 29.1993 24.4924 29.3551 24.4924 29.5175C24.4924 29.68 24.5569 29.8358 24.6718 29.9507C24.7866 30.0656 24.9424 30.1301 25.1049 30.1301H45.6335C45.7959 30.1301 45.9517 30.0656 46.0666 29.9507C46.1814 29.8358 46.246 29.68 46.246 29.5175Z" fill="#141118"/>
<path d="M33.8548 33.0397C33.9697 33.1546 34.0342 33.3104 34.0342 33.4729C34.0342 33.6353 33.9697 33.7912 33.8548 33.906C33.7399 34.0209 33.5842 34.0855 33.4217 34.0855H25.1037C24.9412 34.0855 24.7854 34.0209 24.6706 33.906C24.5557 33.7912 24.4912 33.6353 24.4912 33.4729C24.4912 33.3104 24.5557 33.1546 24.6706 33.0397C24.7854 32.9249 24.9412 32.8603 25.1037 32.8603H33.4217C33.5842 32.8603 33.7399 32.9249 33.8548 33.0397Z" fill="#141118"/>
<path d="M25.1037 36.8175C24.9412 36.8175 24.7854 36.882 24.6706 36.9969C24.5557 37.1118 24.4912 37.2676 24.4912 37.43C24.4912 37.5925 24.5557 37.7483 24.6706 37.8632C24.7854 37.9781 24.9412 38.0426 25.1037 38.0426H31.4739C31.6363 38.0426 31.7921 37.9781 31.907 37.8632C32.0219 37.7483 32.0864 37.5925 32.0864 37.43C32.0864 37.2676 32.0219 37.1118 31.907 36.9969C31.7921 36.882 31.6363 36.8175 31.4739 36.8175H25.1037Z" fill="#141118"/>
</svg>
