<svg width="52" height="56" viewBox="0 0 52 56" fill="none" xmlns="http://www.w3.org/2000/svg">
<path fill-rule="evenodd" clip-rule="evenodd" d="M11.9252 3.97883C12.2278 3.77667 12.5834 3.66877 12.9472 3.66877C13.4349 3.66929 13.9024 3.86323 14.2473 4.20805C14.5921 4.55288 14.7862 5.02042 14.7868 5.50811C14.7868 5.87197 14.679 6.22768 14.4769 6.53025C14.2748 6.83281 13.9875 7.06865 13.6514 7.20794C13.3153 7.34722 12.9454 7.3837 12.5886 7.31275C12.2317 7.2418 11.9039 7.06661 11.6466 6.80934C11.3893 6.55208 11.2141 6.22428 11.1431 5.86742C11.0721 5.51056 11.1085 5.14065 11.2477 4.80448C11.387 4.46831 11.6227 4.18098 11.9252 3.97883ZM12.6058 6.01946C12.7069 6.08698 12.8257 6.12302 12.9472 6.12302C13.1102 6.12279 13.2664 6.05792 13.3817 5.94264C13.4969 5.82737 13.5617 5.6711 13.5618 5.50811C13.5618 5.38657 13.5257 5.26777 13.4581 5.16673C13.3905 5.0657 13.2945 4.98697 13.1822 4.9405C13.0699 4.89402 12.9464 4.88189 12.8272 4.90564C12.708 4.92939 12.5985 4.98795 12.5126 5.07392C12.4267 5.15988 12.3682 5.2694 12.3445 5.38861C12.3208 5.50783 12.333 5.63139 12.3795 5.74368C12.426 5.85597 12.5048 5.95194 12.6058 6.01946Z" fill="#141118"/>
<path fill-rule="evenodd" clip-rule="evenodd" d="M8.20839 8.4074C7.8445 8.40734 7.48876 8.5152 7.18617 8.71734C6.88357 8.91948 6.64771 9.20681 6.50842 9.54302C6.36912 9.87922 6.33264 10.2492 6.4036 10.6061C6.47455 10.963 6.64975 11.2909 6.90704 11.5483C7.16433 11.8056 7.49215 11.9809 7.84905 12.0519C8.20594 12.1229 8.57588 12.0865 8.91208 11.9473C9.24828 11.808 9.53564 11.5722 9.73781 11.2696C9.93998 10.967 10.0479 10.6113 10.0479 10.2473C10.0473 9.75958 9.85334 9.29197 9.5085 8.94705C9.16366 8.60212 8.69611 8.40805 8.20839 8.4074ZM8.20839 10.8622C8.08677 10.8623 7.96786 10.8263 7.86671 10.7588C7.76555 10.6912 7.6867 10.5952 7.64011 10.4829C7.59353 10.3705 7.58131 10.2469 7.605 10.1276C7.62869 10.0083 7.68722 9.89867 7.7732 9.81264C7.85918 9.72661 7.96874 9.66802 8.08802 9.64426C8.2073 9.62051 8.33094 9.63267 8.44331 9.6792C8.55568 9.72574 8.65173 9.80455 8.71931 9.90568C8.78688 10.0068 8.82295 10.1257 8.82295 10.2473C8.8228 10.4103 8.75801 10.5666 8.6428 10.6819C8.52759 10.7971 8.37136 10.862 8.20839 10.8622Z" fill="#141118"/>
<path fill-rule="evenodd" clip-rule="evenodd" d="M11.9244 13.4566C12.227 13.2544 12.5828 13.1466 12.9467 13.1466C13.4344 13.1473 13.9019 13.3414 14.2468 13.6863C14.5916 14.0312 14.7856 14.4988 14.7862 14.9866C14.7862 15.3505 14.6782 15.7062 14.4761 16.0088C14.2739 16.3114 13.9865 16.5472 13.6503 16.6865C13.3141 16.8257 12.9442 16.8622 12.5873 16.7911C12.2304 16.7201 11.9026 16.5449 11.6453 16.2875C11.388 16.0302 11.2128 15.7023 11.1419 15.3453C11.0709 14.9884 11.1074 14.6184 11.2467 14.2822C11.386 13.946 11.6218 13.6587 11.9244 13.4566ZM12.605 15.498C12.7061 15.5655 12.825 15.6015 12.9467 15.6015C13.1096 15.6012 13.2659 15.5364 13.3811 15.4211C13.4963 15.3058 13.5611 15.1496 13.5612 14.9866C13.5612 14.8649 13.5252 14.746 13.4576 14.6449C13.39 14.5438 13.294 14.465 13.1816 14.4184C13.0692 14.3719 12.9456 14.3597 12.8263 14.3835C12.707 14.4072 12.5975 14.4658 12.5115 14.5519C12.4255 14.6379 12.367 14.7475 12.3433 14.8668C12.3196 14.9861 12.3318 15.1097 12.3784 15.2221C12.425 15.3344 12.5038 15.4305 12.605 15.498Z" fill="#141118"/>
<path fill-rule="evenodd" clip-rule="evenodd" d="M19.5253 10.2476C19.5253 9.88377 19.4174 9.52809 19.2152 9.22556C19.0131 8.92303 18.7257 8.68724 18.3896 8.54801C18.0534 8.40878 17.6836 8.37236 17.3267 8.44336C16.9699 8.51435 16.6421 8.68957 16.3848 8.94686C16.1276 9.20415 15.9524 9.53196 15.8814 9.88883C15.8104 10.2457 15.8468 10.6156 15.986 10.9518C16.1252 11.288 16.361 11.5753 16.6635 11.7775C16.966 11.9796 17.3217 12.0876 17.6855 12.0876C18.1733 12.087 18.6409 11.893 18.9858 11.548C19.3307 11.2031 19.5247 10.7354 19.5253 10.2476ZM17.6855 10.8625C17.5639 10.8625 17.445 10.8265 17.3439 10.7589C17.2428 10.6914 17.164 10.5953 17.1175 10.483C17.0709 10.3706 17.0587 10.247 17.0825 10.1277C17.1062 10.0084 17.1647 9.89883 17.2507 9.81283C17.3367 9.72683 17.4463 9.66827 17.5656 9.64454C17.6848 9.62081 17.8085 9.63299 17.9208 9.67953C18.0332 9.72607 18.1292 9.80489 18.1968 9.90601C18.2643 10.0071 18.3004 10.126 18.3004 10.2476C18.3002 10.4107 18.2354 10.567 18.1201 10.6823C18.0049 10.7976 17.8485 10.8624 17.6855 10.8625Z" fill="#141118"/>
<path fill-rule="evenodd" clip-rule="evenodd" d="M16.6785 38.8395C16.5742 38.8347 16.4728 38.8034 16.384 38.7485C16.2953 38.6936 16.222 38.6169 16.1712 38.5257C16.1204 38.4346 16.0937 38.3319 16.0936 38.2275V27.9613C16.0936 27.8569 16.1203 27.7542 16.1712 27.663C16.222 27.5718 16.2953 27.4952 16.3841 27.4403C16.4729 27.3854 16.5743 27.3541 16.6786 27.3494C16.7829 27.3447 16.8867 27.3667 16.98 27.4134L27.2449 32.5468C27.3466 32.5977 27.4322 32.6759 27.492 32.7727C27.5518 32.8695 27.5834 32.981 27.5834 33.0948C27.5834 33.2085 27.5518 33.32 27.492 33.4168C27.4322 33.5136 27.3466 33.5918 27.2449 33.6427L16.98 38.7755C16.8866 38.8222 16.7828 38.8442 16.6785 38.8395ZM25.6016 33.0947L17.3186 28.9525V37.2364L25.6016 33.0947Z" fill="#141118"/>
<path fill-rule="evenodd" clip-rule="evenodd" d="M29.707 3.97897C30.0095 3.77678 30.3651 3.66883 30.7289 3.66877C31.2166 3.66914 31.6843 3.86303 32.0292 4.20787C32.3742 4.55272 32.5682 5.02035 32.5687 5.50811C32.5688 5.87196 32.4609 6.22765 32.2589 6.53022C32.0568 6.83278 31.7695 7.06862 31.4334 7.20791C31.0973 7.3472 30.7275 7.38369 30.3706 7.31277C30.0138 7.24184 29.686 7.06669 29.4287 6.80945C29.1714 6.55221 28.9961 6.22445 28.9251 5.8676C28.8541 5.51076 28.8904 5.14086 29.0296 4.80469C29.1688 4.46851 29.4045 4.18116 29.707 3.97897ZM30.3876 6.01931C30.4886 6.08687 30.6074 6.12296 30.7289 6.12302C30.8919 6.12289 31.0483 6.05806 31.1635 5.94277C31.2788 5.82748 31.3436 5.67116 31.3438 5.50811C31.3437 5.38658 31.3076 5.26779 31.2401 5.16676C31.1725 5.06574 31.0765 4.98701 30.9643 4.94052C30.852 4.89404 30.7284 4.8819 30.6092 4.90562C30.4901 4.92934 30.3806 4.98787 30.2947 5.07381C30.2087 5.15975 30.1502 5.26923 30.1265 5.38843C30.1027 5.50762 30.1149 5.63118 30.1614 5.74347C30.2078 5.85576 30.2866 5.95176 30.3876 6.01931Z" fill="#141118"/>
<path fill-rule="evenodd" clip-rule="evenodd" d="M25.9903 8.4074C25.6265 8.40734 25.2707 8.5152 24.9681 8.71734C24.6655 8.91948 24.4297 9.20682 24.2904 9.54302C24.1511 9.87922 24.1146 10.2492 24.1856 10.6061C24.2565 10.9631 24.4317 11.2909 24.689 11.5483C24.9463 11.8056 25.2741 11.9809 25.631 12.0519C25.9879 12.1229 26.3578 12.0865 26.694 11.9473C27.0302 11.808 27.3176 11.5722 27.5198 11.2696C27.7219 10.967 27.8299 10.6113 27.8299 10.2473C27.8293 9.75958 27.6353 9.29197 27.2905 8.94704C26.9456 8.60212 26.4781 8.40805 25.9903 8.4074ZM25.9903 10.8622C25.8687 10.8623 25.7498 10.8263 25.6487 10.7588C25.5475 10.6912 25.4687 10.5952 25.4221 10.4829C25.3755 10.3705 25.3633 10.2469 25.387 10.1276C25.4107 10.0083 25.4692 9.89866 25.5552 9.81264C25.6411 9.72661 25.7507 9.66802 25.87 9.64426C25.9893 9.62051 26.1129 9.63267 26.2253 9.6792C26.3376 9.72574 26.4337 9.80455 26.5013 9.90568C26.5688 10.0068 26.6049 10.1257 26.6049 10.2473C26.6048 10.4103 26.54 10.5666 26.4248 10.6819C26.3095 10.7971 26.1533 10.862 25.9903 10.8622Z" fill="#141118"/>
<path fill-rule="evenodd" clip-rule="evenodd" d="M29.7074 13.4567C30.0099 13.2545 30.3656 13.1466 30.7295 13.1466C31.2173 13.1471 31.685 13.3411 32.0299 13.6861C32.3748 14.031 32.5688 14.4987 32.5693 14.9866C32.5693 15.3505 32.4614 15.7062 32.2593 16.0088C32.0571 16.3114 31.7698 16.5472 31.4336 16.6865C31.0974 16.8257 30.7275 16.8622 30.3706 16.7912C30.0137 16.7202 29.6859 16.5449 29.4286 16.2876C29.1713 16.0303 28.996 15.7024 28.9251 15.3455C28.8541 14.9886 28.8905 14.6187 29.0298 14.2825C29.169 13.9462 29.4048 13.6589 29.7074 13.4567ZM30.3879 15.4978C30.489 15.5654 30.6079 15.6015 30.7295 15.6015C30.8925 15.6013 31.0489 15.5365 31.1641 15.4212C31.2794 15.3059 31.3442 15.1496 31.3444 14.9866C31.3444 14.865 31.3083 14.7461 31.2408 14.6449C31.1732 14.5438 31.0772 14.465 30.9648 14.4185C30.8525 14.3719 30.7288 14.3597 30.6096 14.3835C30.4903 14.4072 30.3807 14.4658 30.2947 14.5518C30.2087 14.6378 30.1502 14.7473 30.1265 14.8666C30.1027 14.9859 30.1149 15.1095 30.1614 15.2219C30.208 15.3342 30.2868 15.4303 30.3879 15.4978Z" fill="#141118"/>
<path fill-rule="evenodd" clip-rule="evenodd" d="M35.4678 8.4074C35.1039 8.4074 34.7482 8.51531 34.4456 8.71748C34.1431 8.91966 33.9073 9.20702 33.768 9.54323C33.6288 9.87943 33.5923 10.2494 33.6633 10.6063C33.7343 10.9632 33.9095 11.2911 34.1668 11.5484C34.4241 11.8057 34.752 11.9809 35.1089 12.0519C35.4657 12.1229 35.8357 12.0865 36.1718 11.9472C36.508 11.808 36.7954 11.5721 36.9975 11.2696C37.1997 10.967 37.3076 10.6112 37.3076 10.2473C37.3071 9.75951 37.1131 9.29181 36.7682 8.94686C36.4232 8.60191 35.9556 8.4079 35.4678 8.4074ZM35.4678 10.8622C35.3462 10.8623 35.2273 10.8262 35.1262 10.7586C35.0251 10.6911 34.9463 10.595 34.8997 10.4827C34.8532 10.3703 34.841 10.2467 34.8647 10.1274C34.8885 10.0081 34.947 9.89853 35.033 9.81253C35.119 9.72653 35.2286 9.66797 35.3478 9.64424C35.4671 9.62051 35.5907 9.63269 35.7031 9.67923C35.8154 9.72577 35.9115 9.80459 35.979 9.90571C36.0466 10.0068 36.0826 10.1257 36.0826 10.2473C36.0825 10.4104 36.0177 10.5667 35.9024 10.682C35.7871 10.7973 35.6308 10.8621 35.4678 10.8622Z" fill="#141118"/>
<path fill-rule="evenodd" clip-rule="evenodd" d="M40.2335 10.2474C40.2351 8.02041 39.4541 5.86373 38.0271 4.15418C36.6 2.44464 34.6177 1.29095 32.4264 0.894724C30.2352 0.498495 27.9744 0.884924 26.0391 1.98648C24.1038 3.08804 22.6171 4.83468 21.8388 6.92117C21.3043 5.48903 20.4321 4.20706 19.2962 3.18417C18.1603 2.16127 16.7944 1.42768 15.3143 1.04571C13.8343 0.66374 12.2839 0.644676 10.7949 0.990138C9.30595 1.3356 7.92235 2.03538 6.76166 3.03003C5.60096 4.02468 4.69748 5.28482 4.12795 6.70339C3.55843 8.12196 3.33969 9.65704 3.49032 11.1782C3.64096 12.6994 4.15651 14.1618 4.99318 15.4411C5.82985 16.7204 6.96292 17.7789 8.29614 18.5265H6.7962C6.03841 18.5274 5.31191 18.8289 4.7761 19.3648C4.24029 19.9007 3.93892 20.6273 3.93811 21.3851V30.2283H1.40153C1.3211 30.2283 1.24144 30.2441 1.16713 30.2749C1.09281 30.3057 1.02528 30.3508 0.968402 30.4077C0.911525 30.4646 0.866412 30.5321 0.83564 30.6064C0.804868 30.6807 0.789041 30.7604 0.789063 30.8408V35.348C0.789041 35.4284 0.804868 35.5081 0.83564 35.5824C0.866412 35.6567 0.911525 35.7243 0.968402 35.7811C1.02528 35.838 1.09281 35.8831 1.16713 35.9139C1.24144 35.9447 1.3211 35.9605 1.40153 35.9605H3.93814V44.8037C3.93895 45.5616 4.24032 46.2881 4.77613 46.8241C5.31194 47.36 6.03844 47.6614 6.79624 47.6623H19.4359V53.1642C19.4365 53.719 19.6572 54.251 20.0495 54.6433C20.4417 55.0357 20.9736 55.2565 21.5284 55.2572H22.1493C22.7041 55.2565 23.2359 55.0357 23.6282 54.6433C24.0205 54.251 24.2411 53.719 24.2418 53.1642V47.6623H36.8814C37.6392 47.6614 38.3657 47.36 38.9015 46.824C39.4373 46.2881 39.7387 45.5616 39.7395 44.8037V21.3851C39.7387 20.6273 39.4373 19.9007 38.9015 19.3648C38.3657 18.8289 37.6392 18.5274 36.8814 18.5265H35.3815C36.8519 17.701 38.0762 16.4991 38.9288 15.0442C39.7815 13.5893 40.2318 11.9337 40.2335 10.2474ZM4.66902 10.2474C4.66899 8.60987 5.1545 7.00914 6.06414 5.6476C6.97379 4.28606 8.26672 3.22486 9.77944 2.59819C11.2922 1.97152 12.9567 1.80754 14.5626 2.12696C16.1685 2.44639 17.6437 3.23489 18.8015 4.39275C19.9593 5.55061 20.7478 7.02582 21.0672 8.63184C21.3867 10.2379 21.2228 11.9026 20.5962 13.4154C19.9697 14.9283 18.9086 16.2213 17.5472 17.1311C16.1858 18.0409 14.5852 18.5265 12.9478 18.5265C10.753 18.524 8.6487 17.651 7.09667 16.0989C5.54463 14.5468 4.67156 12.4424 4.66902 10.2474ZM21.8388 13.5736C22.627 15.6709 24.1278 17.4242 26.0783 18.5265H17.5993C19.5499 17.4242 21.0506 15.6709 21.8388 13.5736ZM2.014 34.7355V31.4534H3.93814V34.7355H2.014ZM23.0168 53.1642C23.0166 53.3943 22.9251 53.6149 22.7625 53.7776C22.5999 53.9403 22.3793 54.0318 22.1493 54.0321H21.5284C21.2983 54.0318 21.0778 53.9403 20.9152 53.7776C20.7525 53.6149 20.6611 53.3943 20.6608 53.1642V47.6623H23.0168L23.0168 53.1642ZM36.8814 19.7515C37.3144 19.7521 37.7296 19.9244 38.0358 20.2306C38.3419 20.5369 38.5141 20.9521 38.5146 21.3851V44.8037C38.5141 45.2368 38.3419 45.652 38.0358 45.9582C37.7296 46.2645 37.3144 46.4368 36.8814 46.4373H6.79624C6.3632 46.4368 5.94806 46.2645 5.64189 45.9582C5.33572 45.652 5.16353 45.2368 5.16308 44.8037V21.3851C5.16353 20.9521 5.33572 20.5369 5.64189 20.2306C5.94806 19.9243 6.3632 19.7521 6.79624 19.7515H36.8814ZM30.7298 18.5265C29.0925 18.5264 27.4919 18.0408 26.1306 17.1311C24.7692 16.2213 23.7082 14.9282 23.0817 13.4154C22.4551 11.9026 22.2912 10.238 22.6107 8.63198C22.9302 7.02601 23.7186 5.55084 24.8764 4.39301C26.0342 3.23518 27.5093 2.4467 29.1152 2.12727C30.721 1.80785 32.3855 1.97182 33.8982 2.59846C35.4109 3.2251 36.7038 4.28626 37.6134 5.64775C38.5231 7.00924 39.0086 8.60991 39.0086 10.2474C39.0061 12.4424 38.1331 14.5469 36.5811 16.099C35.029 17.6511 32.9247 18.5241 30.7298 18.5265Z" fill="#141118"/>
<path d="M51.6753 21.7062C51.5869 21.6513 51.4859 21.6199 51.3819 21.6149C51.278 21.6099 51.1745 21.6314 51.0811 21.6775L41.5726 26.37C41.5005 26.4056 41.4361 26.4551 41.3831 26.5155C41.3301 26.576 41.2895 26.6463 41.2637 26.7225C41.2378 26.7986 41.2273 26.8791 41.2325 26.9594C41.2378 27.0396 41.2588 27.118 41.2944 27.1901C41.33 27.2622 41.3794 27.3266 41.4399 27.3796C41.5004 27.4326 41.5707 27.4732 41.6468 27.4991C41.723 27.5249 41.8035 27.5355 41.8837 27.5302C41.9639 27.5249 42.0423 27.5039 42.1145 27.4683L50.7396 23.2118V42.9768L42.1145 38.7203C42.0424 38.6847 41.964 38.6637 41.8837 38.6584C41.8035 38.6531 41.723 38.6637 41.6469 38.6895C41.5707 38.7153 41.5004 38.7559 41.4399 38.8089C41.3795 38.8619 41.33 38.9263 41.2944 38.9984C41.2589 39.0705 41.2378 39.1489 41.2326 39.2292C41.2273 39.3094 41.2379 39.3899 41.2637 39.4661C41.2895 39.5422 41.3301 39.6125 41.3831 39.673C41.4361 39.7335 41.5005 39.7829 41.5726 39.8185L51.0811 44.5111C51.1653 44.5529 51.2581 44.5746 51.3521 44.5745C51.4325 44.5745 51.5122 44.5587 51.5865 44.528C51.6608 44.4972 51.7284 44.4521 51.7852 44.3952C51.8421 44.3383 51.8872 44.2708 51.918 44.1964C51.9488 44.1221 51.9646 44.0424 51.9645 43.962V22.2266C51.9645 22.1224 51.9379 22.02 51.8873 21.9289C51.8367 21.8379 51.7638 21.7612 51.6753 21.7062Z" fill="#141118"/>
</svg>
