<svg width="50" height="62" viewBox="0 0 50 62" fill="none" xmlns="http://www.w3.org/2000/svg">
<path fill-rule="evenodd" clip-rule="evenodd" d="M26.7377 5.48426V9.31848C26.7377 9.79811 26.5472 10.2581 26.2081 10.5973C25.869 10.9364 25.409 11.127 24.9294 11.127C24.4498 11.127 23.9898 10.9364 23.6507 10.5973C23.3116 10.2581 23.1211 9.79811 23.1211 9.31848V5.48426C23.1211 5.00462 23.3116 4.54463 23.6507 4.20547C23.9898 3.86632 24.4498 3.67578 24.9294 3.67578C25.409 3.67578 25.869 3.86632 26.2081 4.20547C26.5472 4.54463 26.7377 5.00462 26.7377 5.48426ZM24.345 5.48426V9.31848C24.345 9.47349 24.4066 9.62215 24.5162 9.73176C24.6258 9.84136 24.7744 9.90294 24.9294 9.90294C25.0844 9.90294 25.233 9.84136 25.3426 9.73176C25.4522 9.62215 25.5138 9.47349 25.5138 9.31848V5.48426C25.5138 5.32925 25.4522 5.18059 25.3426 5.07098C25.233 4.96137 25.0844 4.89979 24.9294 4.89979C24.7744 4.89979 24.6258 4.96137 24.5162 5.07098C24.4066 5.18059 24.345 5.32925 24.345 5.48426Z" fill="#141118"/>
<path fill-rule="evenodd" clip-rule="evenodd" d="M18.4231 30.7551H23.9112L23.1572 39.15C23.1447 39.2877 23.1791 39.4256 23.2549 39.5412C23.3307 39.6569 23.4435 39.7434 23.5748 39.7868C23.706 39.8301 23.8482 39.8278 23.9779 39.78C24.1077 39.7323 24.2175 39.642 24.2894 39.5239L31.9566 26.9778C32.0154 26.8816 32.0466 26.7711 32.0466 26.6583V24.5953C32.0466 24.4329 31.9821 24.2773 31.8673 24.1625C31.7526 24.0477 31.5969 23.9832 31.4346 23.9832H25.9466L26.7035 15.5878C26.716 15.4501 26.6814 15.3123 26.6055 15.1968C26.5297 15.0813 26.4169 14.9949 26.2857 14.9516C26.1544 14.9083 26.0124 14.9107 25.8827 14.9584C25.753 15.0062 25.6433 15.0964 25.5714 15.2144L17.9042 27.7605C17.8454 27.8567 17.8142 27.9673 17.8142 28.08V30.1425C17.8141 30.3044 17.8781 30.4597 17.9922 30.5745C18.1063 30.6894 18.2613 30.7543 18.4231 30.7551ZM19.0351 28.2526L25.2471 18.0878L24.6676 24.5408C24.66 24.6256 24.6702 24.7111 24.6975 24.7918C24.7249 24.8724 24.7687 24.9465 24.8263 25.0092C24.8839 25.0719 24.954 25.1219 25.032 25.1561C25.1101 25.1902 25.1944 25.2076 25.2795 25.2073H30.8251V26.4851L24.6106 36.6499L25.1902 30.1976C25.1977 30.1127 25.1875 30.0273 25.1602 29.9466C25.1329 29.8659 25.089 29.7919 25.0314 29.7291C24.9738 29.6664 24.9037 29.6164 24.8257 29.5823C24.7477 29.5482 24.6634 29.5307 24.5782 29.5311H19.0351V28.2526Z" fill="#141118"/>
<path fill-rule="evenodd" clip-rule="evenodd" d="M12.3632 24.5658C12.2387 27.5229 13.1607 30.4291 14.967 32.7735C16.7661 35.009 17.7672 37.7813 17.8114 40.6506V50.7389C17.8138 51.4962 18.0929 52.2265 18.5963 52.7923C19.0997 53.358 19.7926 53.7202 20.5444 53.8106C20.5444 54.9735 21.0064 56.0889 21.8287 56.9112C22.651 57.7336 23.7662 58.1956 24.9291 58.1956C26.092 58.1956 27.2073 57.7336 28.0296 56.9112C28.8518 56.0889 29.3138 54.9735 29.3138 53.8106C30.0656 53.7202 30.7585 53.358 31.2619 52.7923C31.7653 52.2265 32.0445 51.4962 32.0468 50.7389V40.8856C32.0942 37.9017 33.1207 35.016 34.9683 32.6725C36.4011 30.7722 37.2652 28.5042 37.4602 26.1323C37.6551 23.7603 37.173 21.3817 36.0698 19.2729C34.9666 17.1641 33.2876 15.4117 31.2279 14.2194C29.1683 13.0271 26.8126 12.4439 24.4347 12.5375C21.2842 12.6734 18.2986 13.983 16.0648 16.2088C13.831 18.4347 12.5106 21.4157 12.3632 24.5658ZM30.8229 44.8997V48.6134H19.0353V44.8997H30.8229ZM24.9291 56.9202C24.1067 56.9186 23.3173 56.5966 22.7283 56.0226C22.1394 55.4485 21.7972 54.6676 21.7745 53.8454H28.0838C28.061 54.6676 27.7188 55.4485 27.1299 56.0226C26.5409 56.5966 25.7515 56.9186 24.9291 56.9202ZM28.9368 52.6214H20.9202C20.421 52.6206 19.9424 52.4221 19.5892 52.0693C19.2359 51.7165 19.0368 51.2382 19.0353 50.7389V49.8374H30.8229V50.7389C30.8214 51.2384 30.6221 51.7169 30.2686 52.0697C29.9152 52.4226 29.4363 52.6209 28.9368 52.6214ZM24.4818 13.759C26.6291 13.6729 28.7567 14.1983 30.6171 15.2743C32.4774 16.3502 33.994 17.9323 34.9904 19.8366C35.9867 21.7408 36.4219 23.8889 36.2452 26.0308C36.0685 28.1727 35.2872 30.2204 33.9922 31.9356C31.9839 34.4898 30.8701 37.633 30.8223 40.8819V43.6776H27.3708V41.8189C27.3708 41.6566 27.3064 41.5009 27.1916 41.3862C27.0768 41.2714 26.9212 41.2069 26.7589 41.2069C26.5966 41.2069 26.4409 41.2714 26.3262 41.3862C26.2114 41.5009 26.1469 41.6566 26.1469 41.8189V43.6757H23.7113V41.8189C23.7113 41.6566 23.6468 41.5009 23.5321 41.3862C23.4173 41.2714 23.2617 41.2069 23.0994 41.2069C22.9371 41.2069 22.7814 41.2714 22.6666 41.3862C22.5519 41.5009 22.4874 41.6566 22.4874 41.8189V43.6757H19.0353V40.6506C18.9915 37.5102 17.8997 34.4744 15.9333 32.0256C14.6619 30.3759 13.869 28.408 13.6414 26.3376C13.4139 24.2671 13.7605 22.174 14.6433 20.2875C15.5261 18.401 16.911 16.7938 18.6464 15.6421C20.3818 14.4903 22.4006 13.8385 24.4818 13.7578V13.759Z" fill="#141118"/>
<path fill-rule="evenodd" clip-rule="evenodd" d="M12.5977 9.84362C12.2532 9.51487 11.7953 9.33146 11.319 9.33146C10.8428 9.33146 10.3849 9.51487 10.0404 9.84362C9.70137 10.1829 9.51096 10.6428 9.51096 11.1224C9.51096 11.602 9.70137 12.062 10.0404 12.4012L12.7519 15.1124C12.9189 15.2846 13.1184 15.4218 13.3389 15.5161C13.5595 15.6105 13.7965 15.66 14.0363 15.6618C14.2762 15.6636 14.514 15.6177 14.7359 15.5268C14.9578 15.4358 15.1594 15.3016 15.329 15.132C15.4985 14.9624 15.6327 14.7607 15.7236 14.5388C15.8145 14.3168 15.8603 14.079 15.8584 13.8392C15.8565 13.5993 15.8069 13.3623 15.7126 13.1418C15.6182 12.9213 15.4809 12.7217 15.3087 12.5548L12.5977 9.84362ZM14.4428 14.2501C14.3316 14.3562 14.1837 14.4154 14.03 14.4154C13.8763 14.4154 13.7285 14.3562 13.6173 14.2501L10.9057 11.5389C10.8505 11.4848 10.8066 11.4203 10.7765 11.3491C10.7464 11.278 10.7307 11.2016 10.7303 11.1243C10.7299 11.047 10.7449 10.9704 10.7743 10.899C10.8037 10.8275 10.847 10.7626 10.9016 10.708C10.9563 10.6534 11.0212 10.6102 11.0927 10.5808C11.1642 10.5515 11.2407 10.5366 11.318 10.537C11.3953 10.5374 11.4717 10.5532 11.5428 10.5833C11.6139 10.6135 11.6784 10.6574 11.7324 10.7127L14.4434 13.4239C14.4978 13.4781 14.5409 13.5425 14.5704 13.6135C14.5998 13.6844 14.615 13.7605 14.615 13.8373C14.615 13.9141 14.5998 13.9901 14.5704 14.0611C14.5409 14.132 14.4978 14.1964 14.4434 14.2507L14.4428 14.2501Z" fill="#141118"/>
<path fill-rule="evenodd" clip-rule="evenodd" d="M4.40341 26.0124C4.06442 25.6734 3.87369 25.2138 3.87305 24.7344C3.87353 24.2549 4.06421 23.7952 4.40323 23.4561C4.74226 23.1171 5.20193 22.9264 5.68138 22.9259H9.51531C9.99491 22.9259 10.4549 23.1164 10.794 23.4556C11.1331 23.7947 11.3236 24.2547 11.3236 24.7344C11.3236 25.214 11.1331 25.674 10.794 26.0131C10.4549 26.3523 9.99491 26.5428 9.51531 26.5428H5.68138C5.20198 26.5422 4.7424 26.3514 4.40341 26.0124ZM9.92838 25.1475C10.0379 25.0379 10.0996 24.8893 10.0997 24.7344C10.0996 24.5794 10.0379 24.4308 9.92838 24.3213C9.81881 24.2117 9.67026 24.1501 9.51531 24.1499H5.68138C5.52639 24.1499 5.37774 24.2115 5.26814 24.3211C5.15854 24.4307 5.09696 24.5793 5.09696 24.7344C5.09696 24.8894 5.15854 25.038 5.26814 25.1476C5.37774 25.2572 5.52639 25.3188 5.68138 25.3188H9.51531C9.67026 25.3187 9.81881 25.257 9.92838 25.1475Z" fill="#141118"/>
<path fill-rule="evenodd" clip-rule="evenodd" d="M45.9866 24.7344C45.9861 24.2549 45.7954 23.7952 45.4564 23.4561C45.1174 23.1171 44.6577 22.9264 44.1782 22.9259H40.3443C39.8647 22.9259 39.4047 23.1164 39.0656 23.4556C38.7265 23.7947 38.536 24.2547 38.536 24.7344C38.536 25.214 38.7265 25.674 39.0656 26.0131C39.4047 26.3523 39.8647 26.5428 40.3443 26.5428H44.1782C44.6576 26.5422 45.1172 26.3514 45.4562 26.0124C45.7952 25.6734 45.9859 25.2138 45.9866 24.7344ZM39.7599 24.7344C39.76 24.5794 39.8217 24.4308 39.9312 24.3213C40.0408 24.2117 40.1894 24.1501 40.3443 24.1499H44.1782C44.255 24.1499 44.331 24.165 44.4019 24.1944C44.4728 24.2238 44.5372 24.2668 44.5915 24.3211C44.6457 24.3753 44.6888 24.4398 44.7182 24.5107C44.7475 24.5816 44.7626 24.6576 44.7626 24.7344C44.7626 24.8111 44.7475 24.8871 44.7182 24.958C44.6888 25.0289 44.6457 25.0934 44.5915 25.1476C44.5372 25.2019 44.4728 25.245 44.4019 25.2743C44.331 25.3037 44.255 25.3188 44.1782 25.3188H40.3443C40.1894 25.3187 40.0408 25.257 39.9312 25.1475C39.8217 25.0379 39.76 24.8893 39.7599 24.7344Z" fill="#141118"/>
<path fill-rule="evenodd" clip-rule="evenodd" d="M34.5513 12.5544L37.2617 9.84378C37.6062 9.51484 38.0642 9.33134 38.5405 9.33146C39.0168 9.33157 39.4747 9.51528 39.8191 9.84439C40.158 10.1835 40.3484 10.6434 40.3484 11.1229C40.3484 11.6024 40.158 12.0622 39.8191 12.4014L37.1075 15.1125C36.9405 15.2847 36.7409 15.4219 36.5204 15.5162C36.2998 15.6104 36.0628 15.6599 35.823 15.6617C35.5831 15.6634 35.3453 15.6175 35.1234 15.5265C34.9016 15.4355 34.7 15.3012 34.5305 15.1316C34.3609 14.9619 34.2268 14.7602 34.136 14.5382C34.0452 14.3163 33.9994 14.0784 34.0013 13.8386C34.0033 13.5988 34.0529 13.3617 34.1473 13.1412C34.2417 12.9207 34.3791 12.7212 34.5513 12.5544ZM36.2422 14.2466L38.9538 11.536C39.0634 11.4263 39.125 11.2776 39.125 11.1226C39.125 10.9675 39.0634 10.8188 38.9538 10.7092C38.8441 10.5995 38.6954 10.5379 38.5404 10.5379C38.3853 10.5379 38.2366 10.5995 38.127 10.7092L35.416 13.4203C35.3617 13.4746 35.3187 13.539 35.2893 13.6098C35.2599 13.6807 35.2448 13.7567 35.2448 13.8334C35.2448 13.9102 35.2599 13.9862 35.2893 14.057C35.3187 14.1279 35.3617 14.1923 35.416 14.2466C35.5272 14.353 35.6752 14.4124 35.8291 14.4124C35.983 14.4124 36.131 14.353 36.2422 14.2466Z" fill="#141118"/>
</svg>
