<svg width="30" height="30" viewBox="0 0 30 30" fill="none" xmlns="http://www.w3.org/2000/svg">
<path d="M1.34772 12.4003C1.19966 12.5484 0.998855 12.6316 0.789474 12.6316C0.580092 12.6316 0.379287 12.5484 0.231232 12.4003C0.0831766 12.2523 0 12.0515 0 11.8421V5.52632C0 4.06065 0.582235 2.65501 1.61862 1.61862C2.65501 0.582235 4.06065 0 5.52632 0H18.9474C19.1568 0 19.3576 0.0831766 19.5056 0.231232C19.6537 0.379287 19.7368 0.580092 19.7368 0.789474C19.7368 0.998855 19.6537 1.19966 19.5056 1.34772C19.3576 1.49577 19.1568 1.57895 18.9474 1.57895H5.52632C4.47941 1.57895 3.47538 1.99483 2.7351 2.7351C1.99483 3.47538 1.57895 4.47941 1.57895 5.52632V11.8421C1.57895 12.0515 1.49577 12.2523 1.34772 12.4003Z" fill="#F2F2F2"/>
<path d="M28.6518 11.2839C28.7998 11.1358 29.0006 11.0526 29.21 11.0526C29.4194 11.0526 29.6202 11.1358 29.7683 11.2839C29.9163 11.4319 29.9995 11.6327 29.9995 11.8421V24.4737C30.0029 25.7817 29.5423 27.0486 28.6995 28.0489C27.8568 29.0492 26.6865 29.7182 25.3969 29.9368H25.2626C25.0734 29.9393 24.8896 29.8737 24.7447 29.7519C24.5998 29.6302 24.5034 29.4605 24.4732 29.2737C24.4563 29.1704 24.4602 29.0649 24.4845 28.9631C24.5088 28.8614 24.5532 28.7655 24.6149 28.681C24.6766 28.5966 24.7544 28.5252 24.844 28.4711C24.9335 28.417 25.0329 28.3812 25.1363 28.3658C26.0552 28.2092 26.8889 27.7325 27.49 27.0202C28.0911 26.3078 28.4207 25.4058 28.4205 24.4737V11.8421C28.4205 11.6327 28.5037 11.4319 28.6518 11.2839Z" fill="#F2F2F2"/>
<path d="M24.7769 7.04681C24.6807 7.0861 24.5777 7.10601 24.4738 7.10541C24.3699 7.10601 24.2669 7.0861 24.1707 7.04681C24.0746 7.00752 23.9871 6.94963 23.9133 6.87646L22.3344 5.29751C22.1857 5.14885 22.1022 4.94723 22.1022 4.73699C22.1022 4.52675 22.1857 4.32512 22.3344 4.17646C22.483 4.0278 22.6846 3.94428 22.8949 3.94428C23.1051 3.94428 23.3068 4.0278 23.4554 4.17646L24.4738 5.20278L26.2817 3.38699C26.4304 3.23833 26.632 3.15481 26.8423 3.15481C27.0525 3.15481 27.2541 3.23833 27.4028 3.38699C27.5514 3.53565 27.635 3.73728 27.635 3.94751C27.635 4.15775 27.5514 4.35938 27.4028 4.50804L25.0344 6.87646C24.9606 6.94963 24.8731 7.00752 24.7769 7.04681Z" fill="#F2F2F2"/>
<path fill-rule="evenodd" clip-rule="evenodd" d="M24.8684 10.2632C25.8834 10.2632 26.8755 9.9622 27.7194 9.39833C28.5633 8.83447 29.221 8.03302 29.6094 7.09535C29.9978 6.15768 30.0994 5.12589 29.9014 4.13046C29.7034 3.13503 29.2147 2.22067 28.497 1.50301C27.7793 0.785343 26.865 0.296607 25.8695 0.0986042C24.8741 -0.099399 23.8423 0.00222341 22.9047 0.390621C21.967 0.779018 21.1655 1.43675 20.6017 2.28063C20.0378 3.12451 19.7368 4.11665 19.7368 5.13158C19.7389 6.49192 20.2802 7.79594 21.2422 8.75785C22.2041 9.71976 23.5081 10.2611 24.8684 10.2632ZM24.8684 1.57895C25.5711 1.57895 26.2579 1.78731 26.8422 2.17768C27.4264 2.56804 27.8817 3.12289 28.1506 3.77205C28.4195 4.42121 28.4899 5.13552 28.3528 5.82467C28.2157 6.51381 27.8774 7.14683 27.3805 7.64367C26.8837 8.14052 26.2506 8.47887 25.5615 8.61595C24.8724 8.75303 24.158 8.68268 23.5089 8.41378C22.8597 8.1449 22.3049 7.68954 21.9145 7.10532C21.5241 6.52109 21.3158 5.83423 21.3158 5.13158C21.3179 4.19001 21.6928 3.28759 22.3586 2.62179C23.0244 1.956 23.9268 1.58104 24.8684 1.57895Z" fill="#F2F2F2"/>
<path fill-rule="evenodd" clip-rule="evenodd" d="M13.0263 21.3152H12.6316V20.5257H13.4211C13.6304 20.5257 13.8312 20.4425 13.9793 20.2945C14.1274 20.1464 14.2105 19.9456 14.2105 19.7362C14.2105 19.5268 14.1274 19.326 13.9793 19.178C13.8312 19.0299 13.6304 18.9468 13.4211 18.9468H12.6316V18.3152C12.6316 18.1058 12.5484 17.905 12.4003 17.7569C12.2523 17.6089 12.0515 17.5257 11.8421 17.5257C11.6327 17.5257 11.4319 17.6089 11.2839 17.7569C11.1358 17.905 11.0526 18.1058 11.0526 18.3152V18.9468H10.6579C10.1344 18.9468 9.63243 19.1547 9.26229 19.5248C8.89215 19.895 8.68421 20.397 8.68421 20.9204C8.68421 21.4439 8.89215 21.9459 9.26229 22.316C9.63243 22.6862 10.1344 22.8941 10.6579 22.8941H11.0526V23.6836H9.47368C9.2643 23.6836 9.0635 23.7668 8.91544 23.9148C8.76739 24.0629 8.68421 24.2637 8.68421 24.4731C8.68421 24.6824 8.76739 24.8833 8.91544 25.0313C9.0635 25.1794 9.2643 25.2625 9.47368 25.2625H11.0526V25.8941C11.0526 26.1035 11.1358 26.3043 11.2839 26.4524C11.4319 26.6004 11.6327 26.6836 11.8421 26.6836C12.0515 26.6836 12.2523 26.6004 12.4003 26.4524C12.5484 26.3043 12.6316 26.1035 12.6316 25.8941V25.2625H13.0263C13.5498 25.2625 14.0518 25.0546 14.4219 24.6845C14.7921 24.3143 15 23.8123 15 23.2889C15 22.7654 14.7921 22.2634 14.4219 21.8932C14.0518 21.5231 13.5498 21.3152 13.0263 21.3152ZM10.6579 21.3152C10.5532 21.3152 10.4528 21.2736 10.3788 21.1996C10.3047 21.1255 10.2632 21.0251 10.2632 20.9204C10.2632 20.8157 10.3047 20.7153 10.3788 20.6413C10.4528 20.5673 10.5532 20.5257 10.6579 20.5257H11.0526V21.3152H10.6579ZM13.0263 23.6836H12.6316V22.8941H13.0263C13.131 22.8941 13.2314 22.9357 13.3054 23.0097C13.3795 23.0838 13.4211 23.1842 13.4211 23.2889C13.4211 23.3935 13.3795 23.4939 13.3054 23.568C13.2314 23.642 13.131 23.6836 13.0263 23.6836Z" fill="#F2F2F2"/>
<path fill-rule="evenodd" clip-rule="evenodd" d="M2.36842 14.2105H21.3158C21.9439 14.2105 22.5464 14.4601 22.9905 14.9042C23.4347 15.3484 23.6842 15.9508 23.6842 16.5789V27.6316C23.6842 28.2597 23.4347 28.8621 22.9905 29.3063C22.5464 29.7505 21.9439 30 21.3158 30H2.36842C1.74028 30 1.13786 29.7505 0.693695 29.3063C0.249529 28.8621 0 28.2597 0 27.6316V16.5789C0 15.9508 0.249529 15.3484 0.693695 14.9042C1.13786 14.4601 1.74028 14.2105 2.36842 14.2105ZM21.874 28.1898C22.0221 28.0418 22.1053 27.841 22.1053 27.6316V16.5789C22.1053 16.3696 22.0221 16.1688 21.874 16.0207C21.726 15.8727 21.5252 15.7895 21.3158 15.7895H2.36842C2.15904 15.7895 1.95823 15.8727 1.81018 16.0207C1.66212 16.1688 1.57895 16.3696 1.57895 16.5789V27.6316C1.57895 27.841 1.66212 28.0418 1.81018 28.1898C1.95823 28.3379 2.15904 28.4211 2.36842 28.4211H21.3158C21.5252 28.4211 21.726 28.3379 21.874 28.1898Z" fill="#F2F2F2"/>
</svg>
